<?xml version="1.0" standalone="no"?>
<!DOCTYPE svg PUBLIC "-//W3C//DTD SVG 20010904//EN"
 "http://www.w3.org/TR/2001/REC-SVG-20010904/DTD/svg10.dtd">
<svg version="1.0" xmlns="http://www.w3.org/2000/svg"
 width="115.000000pt" height="115.000000pt" viewBox="0 0 115.000000 115.000000"
 preserveAspectRatio="xMidYMid meet">
<metadata>
Created by potrace 1.14, written by Peter Selinger 2001-2017
</metadata>
<g transform="translate(0.000000,115.000000) scale(0.100000,-0.100000)"
fill="#000000" stroke="none">
<path d="M475 1141 c-93 -23 -198 -100 -253 -186 -58 -91 -62 -123 -62 -521
l0 -364 28 -29 c52 -57 147 -43 172 25 6 14 10 170 10 367 0 312 2 346 19 383
60 131 226 164 327 66 45 -44 66 -92 66 -153 -1 -108 -84 -192 -203 -204 -51
-5 -76 -20 -94 -55 -45 -87 23 -166 132 -153 173 21 312 136 358 297 27 91 18
213 -21 296 -52 110 -145 190 -263 224 -56 16 -163 20 -216 7z"/>
</g>
</svg>
